<svg width="24" height="24" viewBox="0 0 24 24" fill="none" xmlns="http://www.w3.org/2000/svg">
<path d="M3.52758 21.398L1.64246 0.253418H22.3575L20.4705 21.3948L11.9874 23.7466L3.52758 21.398Z" fill="#1572B6"/>
<path d="M12.0002 21.9491L18.8551 20.0486L20.4677 1.98218H12.0002V21.9491Z" fill="#33A9DC"/>
<path d="M12.0002 9.64292H15.4319L15.6689 6.98736H12.0002V4.39404H18.5031L18.4409 5.08986L17.8034 12.2362H12.0002V9.64292Z" fill="white"/>
<path d="M12.0156 16.378L12.0041 16.3813L9.11605 15.6015L8.93137 13.5332H6.32849L6.69168 17.6051L12.0037 19.0795L12.0156 19.0761V16.378Z" fill="#EBEBEB"/>
<path d="M15.2113 12.1265L14.899 15.5993L12.0066 16.3801V19.0782L17.323 17.6048L17.362 17.1667L17.8131 12.1265H15.2113Z" fill="white"/>
<path d="M12.0089 4.39404V6.98736H5.74494L5.693 6.40461L5.57488 5.08986L5.51282 4.39404H12.0089ZM12.0001 9.64329V12.2366H9.14844L9.0965 11.6539L8.97819 10.3391L8.91632 9.64329H12.0001Z" fill="#EBEBEB"/>
</svg>
