<svg width="38" height="38" viewBox="0 0 38 38" fill="none" xmlns="http://www.w3.org/2000/svg" xmlns:xlink="http://www.w3.org/1999/xlink">
<g clip-path="url(#clip0_25_695)">
<rect width="38" height="38"/>
<path d="M0.417969 19.0001C0.417969 8.73756 8.73741 0.417969 19 0.417969C29.2625 0.417969 37.582 8.73756 37.582 19.0001C37.582 29.2627 29.2625 37.5823 19 37.5823C8.73741 37.5823 0.417969 29.2627 0.417969 19.0001Z" fill="#F0DB4F"/>
<path d="M34.5405 28.7184C34.2683 27.023 33.1627 25.5989 29.8879 24.271C28.7503 23.7482 27.482 23.3738 27.1041 22.5117C26.9699 22.01 26.9521 21.7273 27.037 21.4236C27.2807 20.438 28.4573 20.1307 29.3897 20.4134C29.9903 20.6147 30.5588 21.0775 30.9017 21.8158C32.5054 20.7773 32.5022 20.7842 33.622 20.0705C33.212 19.4349 32.9932 19.1416 32.7248 18.8696C31.7603 17.7923 30.446 17.2374 28.3441 17.2799L27.2493 17.4215C26.2001 17.6866 25.2002 18.2373 24.6139 18.9756C22.8546 20.9718 23.3564 24.4654 25.4971 25.9032C27.6061 27.4861 30.7043 27.8462 31.1 29.3264C31.4851 31.1386 29.7683 31.7252 28.0618 31.5168C26.8043 31.2552 26.1048 30.6161 25.3487 29.4538C23.9569 30.2592 23.9569 30.2592 22.526 31.0822C22.8653 31.8241 23.2219 32.1598 23.7907 32.8026C26.4827 35.5332 33.2194 35.399 34.4277 31.2659C34.4767 31.124 34.8021 30.1776 34.5405 28.7184ZM20.6215 17.4987H17.1454L17.1312 26.4856C17.1312 28.3969 17.23 30.1491 16.9192 30.6861C16.4107 31.7424 15.0928 31.6115 14.4923 31.4067C13.881 31.1062 13.5702 30.679 13.2101 30.0752C13.1112 29.9018 13.037 29.7676 13.012 29.7572L10.1858 31.488C10.6557 32.4525 11.3481 33.2897 12.2348 33.8336C13.5595 34.6286 15.3398 34.8724 17.2018 34.4449C18.4137 34.0919 19.4593 33.3607 20.0067 32.2477C20.7982 30.7886 20.6284 29.0224 20.6212 27.069C20.6391 23.8821 20.6215 20.6957 20.6215 17.4987Z" fill="#323330"/>
</g>
<defs>
<clipPath id="clip0_25_695">
<rect width="38" height="38" fill="white"/>
</clipPath>
</defs>
</svg>
