<svg width="29" height="26" viewBox="0 0 29 26" fill="none" xmlns="http://www.w3.org/2000/svg">
<path d="M14.5022 15.591C15.9607 15.591 17.1431 14.4086 17.1431 12.9501C17.1431 11.4915 15.9607 10.3091 14.5022 10.3091C13.0436 10.3091 11.8612 11.4915 11.8612 12.9501C11.8612 14.4086 13.0436 15.591 14.5022 15.591Z" fill="#61DAFB"/>
<path d="M24.5332 8.59473C24.0235 8.4094 23.4907 8.22407 22.9347 8.0619C23.0737 7.50591 23.1896 6.94992 23.2822 6.41709C23.7687 3.35913 23.2359 1.20465 21.7532 0.370662C21.3131 0.115832 20.8266 0 20.2706 0C18.6489 0 16.5871 1.20465 14.5022 3.22013C12.4172 1.20465 10.3554 0 8.73373 0C8.17774 0 7.69124 0.115832 7.25108 0.370662C5.76843 1.22782 5.2356 3.38229 5.7221 6.41709C5.81476 6.94992 5.9306 7.50591 6.06959 8.0619C5.5136 8.22407 4.98077 8.38623 4.47111 8.59473C1.57531 9.70672 0 11.2357 0 12.95C0 14.6643 1.59848 16.1933 4.47111 17.3053C4.98077 17.4906 5.5136 17.676 6.06959 17.8381C5.9306 18.3941 5.81476 18.9501 5.7221 19.4829C5.2356 22.5409 5.76843 24.6954 7.25108 25.5294C7.69124 25.7842 8.17774 25.9 8.73373 25.9C10.3785 25.9 12.4404 24.6954 14.5022 22.6799C16.5871 24.6954 18.6489 25.9 20.2706 25.9C20.8266 25.9 21.3131 25.7842 21.7532 25.5294C23.2359 24.6722 23.7687 22.5177 23.2822 19.4829C23.1896 18.9501 23.0737 18.3941 22.9347 17.8381C23.4907 17.676 24.0235 17.5138 24.5332 17.3053C27.429 16.1933 29.0043 14.6643 29.0043 12.95C29.0043 11.2357 27.429 9.70672 24.5332 8.59473ZM21.1046 1.52898C22.0544 2.08498 22.3787 3.79929 21.9849 6.23176C21.9154 6.71825 21.7996 7.22791 21.6606 7.76074C20.4559 7.48274 19.1818 7.29741 17.8381 7.18158C17.0505 6.06959 16.2396 5.07344 15.4288 4.16995C17.1431 2.4788 18.8806 1.32048 20.2938 1.32048C20.5949 1.32048 20.8729 1.38998 21.1046 1.52898ZM18.5099 15.2667C18.093 16.008 17.6065 16.7493 17.0968 17.4906C16.2396 17.5601 15.3825 17.5833 14.5022 17.5833C13.5987 17.5833 12.7415 17.5601 11.9075 17.4906C11.3979 16.7493 10.9345 16.008 10.5175 15.2667C10.0774 14.5022 9.66038 13.7145 9.28972 12.95C9.66038 12.1855 10.0774 11.3979 10.5175 10.6334C10.9345 9.89205 11.421 9.15072 11.9307 8.4094C12.7878 8.3399 13.645 8.31673 14.5253 8.31673C15.4288 8.31673 16.286 8.3399 17.12 8.4094C17.6296 9.15072 18.093 9.89205 18.5099 10.6334C18.9501 11.3979 19.3671 12.1855 19.7378 12.95C19.3439 13.7145 18.9501 14.479 18.5099 15.2667ZM20.4328 14.5022C20.7803 15.313 21.0582 16.1006 21.3131 16.8883C20.5254 17.0736 19.6914 17.2126 18.8111 17.3285C19.0891 16.8883 19.3903 16.425 19.6451 15.9385C19.9231 15.452 20.1779 14.9655 20.4328 14.5022ZM14.5022 20.7803C13.9462 20.1779 13.4133 19.5293 12.9037 18.8574C13.4365 18.8806 13.9693 18.9038 14.5022 18.9038C15.035 18.9038 15.5678 18.8806 16.1006 18.8574C15.591 19.5293 15.0582 20.1779 14.5022 20.7803ZM10.1932 17.3053C9.31289 17.1895 8.4789 17.0505 7.69124 16.8651C7.94607 16.1006 8.22407 15.2898 8.57156 14.479C8.82639 14.9423 9.08122 15.4288 9.35922 15.8921C9.63722 16.4018 9.91521 16.842 10.1932 17.3053ZM8.57156 11.3979C8.22407 10.587 7.94607 9.79938 7.69124 9.01173C8.4789 8.8264 9.31289 8.6874 10.1932 8.57156C9.91521 9.01173 9.61405 9.47505 9.35922 9.96155C9.08122 10.448 8.82639 10.9345 8.57156 11.3979ZM14.5022 5.11977C15.0582 5.7221 15.591 6.37076 16.1006 7.04258C15.5678 7.01942 15.035 6.99625 14.5022 6.99625C13.9693 6.99625 13.4365 7.01942 12.9037 7.04258C13.4133 6.37076 13.9462 5.7221 14.5022 5.11977ZM19.6451 9.98471L18.8111 8.59473C19.6914 8.71056 20.5254 8.84956 21.3131 9.03489C21.0582 9.79938 20.7803 10.6102 20.4328 11.421C20.1779 10.9345 19.9231 10.448 19.6451 9.98471ZM7.01942 6.23176C6.62559 3.79929 6.94992 2.08498 7.89974 1.52898C8.1314 1.38998 8.4094 1.32048 8.71056 1.32048C10.1005 1.32048 11.838 2.45564 13.5755 4.16995C12.7647 5.05027 11.9539 6.06959 11.1662 7.18158C9.82255 7.29741 8.5484 7.50591 7.34375 7.76074C7.20475 7.22791 7.11208 6.71825 7.01942 6.23176ZM1.29732 12.95C1.29732 11.8612 2.6178 10.7029 4.93444 9.84572C5.39777 9.66038 5.90743 9.49822 6.41709 9.35922C6.78775 10.5175 7.25108 11.7454 7.80707 12.9732C7.25108 14.201 6.76459 15.4056 6.41709 16.564C3.22013 15.6373 1.29732 14.2473 1.29732 12.95ZM7.89974 24.371C6.94992 23.8151 6.62559 22.1007 7.01942 19.6683C7.08892 19.1818 7.20475 18.6721 7.34375 18.1393C8.5484 18.4173 9.82255 18.6026 11.1662 18.7184C11.9539 19.8304 12.7647 20.8266 13.5755 21.7301C11.8612 23.4212 10.1237 24.5795 8.71056 24.5795C8.4094 24.5795 8.1314 24.51 7.89974 24.371ZM21.9849 19.6683C22.3787 22.1007 22.0544 23.8151 21.1046 24.371C20.8729 24.51 20.5949 24.5795 20.2938 24.5795C18.9038 24.5795 17.1663 23.4444 15.4288 21.7301C16.2396 20.8498 17.0505 19.8304 17.8381 18.7184C19.1818 18.6026 20.4559 18.3941 21.6606 18.1393C21.7996 18.6721 21.8922 19.1818 21.9849 19.6683ZM24.0699 16.0543C23.6066 16.2396 23.0969 16.4018 22.5872 16.5408C22.2166 15.3825 21.7532 14.1547 21.1972 12.9268C21.7532 11.699 22.2397 10.4944 22.5872 9.33606C25.7842 10.2627 27.707 11.6527 27.707 12.95C27.707 14.0388 26.3634 15.1972 24.0699 16.0543Z" fill="#61DAFB"/>
</svg>
