<svg width="26" height="15" viewBox="0 0 26 15" fill="none" xmlns="http://www.w3.org/2000/svg">
<path d="M13 0C9.53327 0 7.36734 1.6661 6.5 4.99967C7.79959 3.33338 9.31673 2.70854 11.0496 3.12516C12.039 3.36228 12.7461 4.05216 13.5291 4.81666C14.8035 6.06028 16.2786 7.5 19.5 7.5C22.9665 7.5 25.1327 5.8337 26 2.49935C24.7002 4.16662 23.1833 4.79146 21.4502 4.37484C20.461 4.13752 19.7547 3.44784 18.9707 2.68334C17.6971 1.43972 16.2224 0 13 0ZM6.5 7.5C3.03347 7.5 0.867344 9.1663 0 12.5007C1.29959 10.8334 2.81653 10.2085 4.54959 10.6252C5.53902 10.8625 6.24609 11.5522 7.02914 12.3167C8.30355 13.5603 9.77864 15 13 15C16.4665 15 18.6327 13.3339 19.5 10.0003C18.2002 11.6666 16.6833 12.2915 14.9502 11.8748C13.961 11.6377 13.2547 10.9478 12.4707 10.1833C11.1971 8.93972 9.72237 7.5 6.5 7.5Z" fill="#38BDF8"/>
</svg>
